:FULLY-SPECIFIED
:DEGREES
2397
root 3.76408 16.4017 -1.3687 74.3546 -93.5368 -58.5113
lowerback -5.70211 -0.617985 -2.67951
upperback -3.90125 -0.820567 -1.48761
thorax -0.806537 -0.427115 -0.0653871
lowerneck -15.3993 -0.435607 1.64292
upperneck 19.1751 -0.888583 -1.21214
head 8.50085 -0.483247 -0.793279
rclavicle 1.07344e-014 2.00773e-014
rhumerus -36.9182 -5.29778 -83.2913
rradius 34.3027
rwrist 16.2072
rhand -25.3995 -4.51331
rfingers 7.12502
rthumb 1.1257 -34.4901
lclavicle 1.07344e-014 2.00773e-014
lhumerus -35.5535 -8.51687 85.062
lradius 34.3205
lwrist -8.23742
lhand -35.4151 -2.24997
lfingers 7.12502
lthumb -8.54539 27.5571
rfemur -40.2104 -3.03369 18.4379
rtibia 70.324
rfoot -8.78249 -7.91799
rtoes -14.442
lfemur -27.913 -11.4522 -28.1528
ltibia 24.2228
lfoot -10.7802 18.3144
ltoes -5.5254
2398
root 3.76781 16.397 -1.35865 74.6487 -93.5164 -58.8978
lowerback -5.62875 -0.672456 -2.63314
upperback -3.8899 -0.896162 -1.44809
thorax -0.834025 -0.464518 -0.0535585
lowerneck -15.3582 -0.411458 1.60403
upperneck 19.3095 -0.871903 -1.11217
head 8.54001 -0.469157 -0.752287
rclavicle 6.75868e-015 1.94809e-014
rhumerus -37.2375 -5.85188 -82.85
rradius 33.8772
rwrist 16.505
rhand -25.2615 -4.55116
rfingers 7.12502
rthumb 1.25902 -34.5272
lclavicle 6.75868e-015 1.94809e-014
lhumerus -34.9073 -8.62708 85.03
lradius 34.3378
lwrist -8.25902
lhand -35.3274 -2.23788
lfingers 7.12502
lthumb -8.46076 27.5726
rfemur -41.2088 -2.5222 18.4012
rtibia 69.677
rfoot -9.42375 -7.90764
rtoes -14.3371
lfemur -27.3043 -11.7041 -28.2583
ltibia 24.3553
lfoot -11.3075 18.6825
ltoes -5.31983
2399
root 3.77158 16.3939 -1.35208 74.1983 -93.4705 -58.4904
lowerback -5.5724 -0.729658 -2.60184
upperback -3.89606 -0.974773 -1.37281
thorax -0.869288 -0.502724 0.00329752
lowerneck -15.2846 -0.384784 1.57377
upperneck 19.3353 -0.843881 -1.04398
head 8.53641 -0.451835 -0.720944
rclavicle 2.38542e-015 -4.96962e-015
rhumerus -37.504 -6.42619 -82.3829
rradius 33.4194
rwrist 16.9541
rhand -25.1323 -4.46185
rfingers 7.12502
rthumb 1.38381 -34.4371
lclavicle 2.38542e-015 -4.96962e-015
lhumerus -34.2963 -8.85498 85.0544
lradius 34.3541
lwrist -8.10342
lhand -35.4052 -2.29454
lfingers 7.12502
lthumb -8.53585 27.5129
rfemur -42.1647 -1.95025 18.4359
rtibia 68.7417
rfoot -10.0163 -8.02586
rtoes -14.4062
lfemur -26.7576 -12.0482 -28.2737
ltibia 24.4843
lfoot -11.8287 19.2063
ltoes -5.42968
2400
root 3.77514 16.3895 -1.34283 75.4397 -93.4946 -59.7266
lowerback -5.57306 -0.822166 -2.63334
upperback -3.91894 -1.09787 -1.32961
thorax -0.888909 -0.563235 0.0595625
lowerneck -15.2475 -0.348669 1.60441
upperneck 19.4085 -0.812195 -1.0086
head 8.55511 -0.431933 -0.710918
rclavicle 5.1684e-015 -1.19271e-015
rhumerus -37.8377 -6.63899 -82.0465
rradius 33.1454
rwrist 17.0502
rhand -24.9846 -4.63166
rfingers 7.12502
rthumb 1.52645 -34.6059
lclavicle 5.1684e-015 -1.19271e-015
lhumerus -33.6944 -8.97532 85.0481
lradius 34.4171
lwrist -7.88665
lhand -35.3651 -2.16969
lfingers 7.12502
lthumb -8.49712 27.6394
rfemur -43.0742 -1.44777 18.3338
rtibia 67.5788
rfoot -10.6737 -8.12707
rtoes -14.4475
lfemur -26.276 -12.5788 -28.3808
ltibia 24.6734
lfoot -12.3092 19.7925
ltoes -5.34581
2401
root 3.77814 16.3815 -1.33461 75.7374 -93.5199 -60.0602
lowerback -5.54506 -0.902841 -2.64899
upperback -3.90777 -1.20434 -1.27655
thorax -0.889361 -0.615267 0.118067
lowerneck -15.2401 -0.311384 1.64974
upperneck 19.4227 -0.767383 -1.03307
head 8.55897 -0.410386 -0.721569
rclavicle 1.31198e-014 -7.45443e-015
rhumerus -38.0758 -6.82412 -81.7042
rradius 32.8752
rwrist 17.0621
rhand -24.6203 -4.76987
rfingers 7.12502
rthumb 1.87833 -34.7413
lclavicle 1.31198e-014 -7.45443e-015
lhumerus -33.1223 -9.13393 85.0397
lradius 34.5394
lwrist -7.92577
lhand -35.3609 -2.00491
lfingers 7.12502
lthumb -8.49305 27.8043
rfemur -43.8587 -0.875458 18.2131
rtibia 66.1366
rfoot -11.0957 -8.26887
rtoes -13.8921
lfemur -25.7233 -13.1059 -28.4677
ltibia 24.8014
lfoot -12.8153 20.5452
ltoes -5.76567
2402
root 3.78161 16.3706 -1.32907 74.899 -93.5127 -59.1414
lowerback -5.61255 -0.975652 -2.64076
upperback -3.92872 -1.30005 -1.19678
thorax -0.869775 -0.662749 0.189703
lowerneck -15.2884 -0.25088 1.65133
upperneck 19.4696 -0.701876 -0.961007
head 8.58501 -0.372035 -0.690472
rclavicle -1.90833e-014 -4.57205e-015
rhumerus -38.3091 -6.96222 -81.3822
rradius 32.5501
rwrist 17.5329
rhand -24.4859 -4.81444
rfingers 7.12502
rthumb 2.0081 -34.7847
lclavicle -1.90833e-014 -4.57205e-015
lhumerus -32.5782 -9.24714 85.0206
lradius 34.6799
lwrist -7.88418
lhand -35.5191 -2.03083
lfingers 7.12502
lthumb -8.64575 27.7721
rfemur -44.6491 -0.273322 18.2089
rtibia 64.4733
rfoot -11.6105 -8.61387
rtoes -14.2526
lfemur -25.3039 -13.5815 -28.4735
ltibia 24.9095
lfoot -13.1784 21.1968
ltoes -6.14587
